# xmcd
#
# Track frame offsets:
# 150
# 14720
# 31402
# 46659
# 62901
# 98233
# 117116
# 133938
# 148672
# 169387
# 193939
# 211133
# 232600
# 261832
#
# Disc length: 3708 seconds
#
#
# Revision: 0
# Processed by: cddbd v1.5.1PL2 Copyright (c) Steve Scherf et al.
# Submitted via: FreeRIP 2.944 
#
DISCID=ca0e7a0e
DTITLE=Clapton Eric - Unplugged
DYEAR=1992
DGENRE=Salsa
TTITLE0=Signe
TTITLE1=Before you accuse me
TTITLE2=Hey hey
TTITLE3=Tears in heaven
TTITLE4=Lonely stranger
TTITLE5=Nobody knows you when you're down and out
TTITLE6=Layla
TTITLE7=Running on faith
TTITLE8=Walkin' blues
TTITLE9=Alberta
TTITLE10=San Francisco bay blues
TTITLE11=Malted milk
TTITLE12=Old love
TTITLE13=Rollin' and tumblin'
EXTD=
EXTT0=
EXTT1=
EXTT2=
EXTT3=
EXTT4=
EXTT5=
EXTT6=
EXTT7=
EXTT8=
EXTT9=
EXTT10=
EXTT11=
EXTT12=
EXTT13=
PLAYORDER=
